<svg width="199" height="199" viewBox="0 0 199 199" fill="none" xmlns="http://www.w3.org/2000/svg">
<path d="M89.0041 109.984C87.1601 108.144 84.9624 106.695 82.5436 105.727L6.02787 75.0434C5.11429 74.6768 4.3347 74.0396 3.79375 73.2171C3.2528 72.3947 2.97638 71.4265 3.00158 70.4424C3.02679 69.4584 3.35241 68.5056 3.93476 67.7119C4.5171 66.9183 5.32829 66.3217 6.25945 66.0024L189.588 3.28462C190.443 2.97582 191.369 2.91688 192.256 3.11472C193.143 3.31255 193.955 3.75897 194.598 4.40174C195.241 5.04451 195.687 5.85705 195.885 6.74427C196.083 7.63149 196.024 8.55671 195.715 9.41166L132.998 192.741C132.678 193.672 132.082 194.483 131.288 195.065C130.494 195.648 129.542 195.973 128.558 195.998C127.574 196.024 126.605 195.747 125.783 195.206C124.96 194.665 124.323 193.886 123.957 192.972L93.2731 116.437C92.3003 114.02 90.8482 111.825 89.0041 109.984ZM89.0041 109.984L194.567 4.44249" stroke="#FFA802" stroke-width="6" stroke-linecap="round" stroke-linejoin="round"/>
</svg>
