<svg width="90" height="36" viewBox="0 0 90 36" fill="none" xmlns="http://www.w3.org/2000/svg">
<path d="M5.6157 14.14C4.93436 14.14 4.30903 14.0187 3.7397 13.776C3.17036 13.5333 2.6757 13.188 2.2557 12.74C1.8357 12.2827 1.50903 11.746 1.2757 11.13C1.0517 10.514 0.939696 9.83733 0.939696 9.1C0.939696 8.4 1.06103 7.75133 1.3037 7.154C1.5557 6.54733 1.90103 6.01533 2.3397 5.558C2.77836 5.10067 3.28703 4.746 3.8657 4.494C4.44436 4.242 5.0697 4.116 5.7417 4.116C6.2177 4.116 6.6797 4.19067 7.1277 4.34C7.58503 4.48 7.9957 4.68067 8.3597 4.942C8.73303 5.194 9.03636 5.48333 9.2697 5.81L8.2617 6.86C7.99103 6.58933 7.7157 6.36533 7.4357 6.188C7.16503 6.00133 6.88503 5.86133 6.5957 5.768C6.3157 5.67467 6.03103 5.628 5.7417 5.628C5.28436 5.628 4.85503 5.71667 4.4537 5.894C4.0617 6.062 3.71636 6.3 3.4177 6.608C3.12836 6.916 2.8997 7.28467 2.7317 7.714C2.5637 8.134 2.4797 8.596 2.4797 9.1C2.4797 9.632 2.55903 10.1173 2.7177 10.556C2.8857 10.9853 3.11903 11.354 3.4177 11.662C3.71636 11.97 4.07103 12.208 4.4817 12.376C4.9017 12.5347 5.3637 12.614 5.8677 12.614C6.1757 12.614 6.47903 12.572 6.7777 12.488C7.07636 12.404 7.35636 12.2827 7.6177 12.124C7.87903 11.9653 8.11703 11.7787 8.3317 11.564L9.0877 12.796C8.87303 13.048 8.57903 13.2767 8.2057 13.482C7.8417 13.6873 7.43103 13.8507 6.9737 13.972C6.5257 14.084 6.07303 14.14 5.6157 14.14ZM20.6196 14V4.2H22.1317V14H20.6196ZM14.2216 14V4.2H15.7336V14H14.2216ZM14.8796 9.842V8.386H21.2917V9.842H14.8796ZM27.952 14V4.2H34.126V5.656H29.464V12.544H34.126V14H27.952ZM28.638 9.702V8.246H33.356V9.702H28.638ZM39.6316 14V4.2H43.4676C44.1676 4.2 44.7976 4.31667 45.3576 4.55C45.927 4.78333 46.4123 5.11933 46.8136 5.558C47.215 5.99667 47.523 6.51467 47.7376 7.112C47.9523 7.70933 48.0596 8.372 48.0596 9.1C48.0596 9.828 47.9523 10.4953 47.7376 11.102C47.523 11.6993 47.215 12.2173 46.8136 12.656C46.4216 13.0853 45.941 13.4167 45.3716 13.65C44.8023 13.8833 44.1676 14 43.4676 14H39.6316ZM41.1436 12.698L41.1016 12.544H43.3976C43.8923 12.544 44.331 12.4647 44.7136 12.306C45.1056 12.1473 45.4323 11.9233 45.6936 11.634C45.9643 11.3353 46.1696 10.9713 46.3096 10.542C46.4496 10.1127 46.5196 9.632 46.5196 9.1C46.5196 8.568 46.4496 8.092 46.3096 7.672C46.1696 7.24267 45.9643 6.87867 45.6936 6.58C45.423 6.28133 45.0963 6.05267 44.7136 5.894C44.331 5.73533 43.8923 5.656 43.3976 5.656H41.0596L41.1436 5.53V12.698ZM1.69602 32L1.23402 30.852L4.23002 27.478C4.38869 27.31 4.55202 27.1187 4.72002 26.904C4.89736 26.68 5.06536 26.4513 5.22402 26.218C5.38269 25.9847 5.50869 25.756 5.60202 25.532C5.70469 25.2987 5.75602 25.0793 5.75602 24.874C5.75602 24.5753 5.69536 24.3233 5.57402 24.118C5.46202 23.9033 5.29402 23.74 5.07002 23.628C4.85536 23.516 4.59402 23.46 4.28602 23.46C4.01536 23.46 3.74936 23.5393 3.48802 23.698C3.22669 23.8567 2.98869 24.0807 2.77402 24.37C2.55936 24.6593 2.39136 24.9953 2.27002 25.378L1.10802 24.65C1.26669 24.1087 1.50469 23.6467 1.82202 23.264C2.14869 22.872 2.53602 22.5733 2.98402 22.368C3.44136 22.1627 3.93602 22.06 4.46802 22.06C5.01869 22.06 5.50869 22.1767 5.93802 22.41C6.36736 22.634 6.70336 22.9513 6.94602 23.362C7.18869 23.7633 7.31002 24.23 7.31002 24.762C7.31002 24.9767 7.28669 25.196 7.24002 25.42C7.19336 25.644 7.11869 25.8773 7.01602 26.12C6.91336 26.3533 6.78269 26.6007 6.62402 26.862C6.46536 27.114 6.27402 27.38 6.05002 27.66C5.83536 27.94 5.58802 28.234 5.30802 28.542L3.08202 30.964L2.80202 30.544H7.61802V32H1.69602ZM17.6259 32.14C16.8793 32.14 16.2353 31.9347 15.6939 31.524C15.1619 31.1133 14.7513 30.5347 14.4619 29.788C14.1726 29.032 14.0279 28.136 14.0279 27.1C14.0279 26.064 14.1726 25.1727 14.4619 24.426C14.7513 23.67 15.1619 23.0867 15.6939 22.676C16.2353 22.2653 16.8793 22.06 17.6259 22.06C18.3726 22.06 19.0166 22.2653 19.5579 22.676C20.0993 23.0867 20.5146 23.67 20.8039 24.426C21.0933 25.1727 21.2379 26.064 21.2379 27.1C21.2379 28.136 21.0933 29.032 20.8039 29.788C20.5146 30.5347 20.0993 31.1133 19.5579 31.524C19.0166 31.9347 18.3726 32.14 17.6259 32.14ZM17.6259 30.768C18.3073 30.768 18.8346 30.4507 19.2079 29.816C19.5813 29.172 19.7679 28.2667 19.7679 27.1C19.7679 25.9333 19.5813 25.0327 19.2079 24.398C18.8346 23.754 18.3073 23.432 17.6259 23.432C16.9446 23.432 16.4173 23.754 16.0439 24.398C15.6706 25.0327 15.4839 25.9333 15.4839 27.1C15.4839 28.2667 15.6706 29.172 16.0439 29.816C16.4173 30.4507 16.9446 30.768 17.6259 30.768ZM28.5099 32L28.0479 30.852L31.0439 27.478C31.2025 27.31 31.3659 27.1187 31.5339 26.904C31.7112 26.68 31.8792 26.4513 32.0379 26.218C32.1965 25.9847 32.3225 25.756 32.4159 25.532C32.5185 25.2987 32.5699 25.0793 32.5699 24.874C32.5699 24.5753 32.5092 24.3233 32.3879 24.118C32.2759 23.9033 32.1079 23.74 31.8839 23.628C31.6692 23.516 31.4079 23.46 31.0999 23.46C30.8292 23.46 30.5632 23.5393 30.3019 23.698C30.0405 23.8567 29.8025 24.0807 29.5879 24.37C29.3732 24.6593 29.2052 24.9953 29.0839 25.378L27.9219 24.65C28.0805 24.1087 28.3185 23.6467 28.6359 23.264C28.9625 22.872 29.3499 22.5733 29.7979 22.368C30.2552 22.1627 30.7499 22.06 31.2819 22.06C31.8325 22.06 32.3225 22.1767 32.7519 22.41C33.1812 22.634 33.5172 22.9513 33.7599 23.362C34.0025 23.7633 34.1239 24.23 34.1239 24.762C34.1239 24.9767 34.1005 25.196 34.0539 25.42C34.0072 25.644 33.9325 25.8773 33.8299 26.12C33.7272 26.3533 33.5965 26.6007 33.4379 26.862C33.2792 27.114 33.0879 27.38 32.8639 27.66C32.6492 27.94 32.4019 28.234 32.1219 28.542L29.8959 30.964L29.6159 30.544H34.4319V32H28.5099ZM44.8523 32V24.104L45.2023 24.188L41.9823 28.122L41.9263 27.954H48.0163V29.34H40.9883L40.3443 28.08L45.1463 22.2H46.3083V32H44.8523Z" fill="white"/>
<line y1="-0.75" x2="38.8716" y2="-0.75" transform="matrix(0.72032 0.693642 -0.72032 0.693642 60 5.03705)" stroke="white" stroke-width="1.5"/>
<line y1="-0.75" x2="38.8716" y2="-0.75" transform="matrix(-0.72032 0.693642 -0.72032 -0.693642 88 4)" stroke="white" stroke-width="1.5"/>
</svg>
