<svg width="142" height="132" viewBox="0 0 142 132" fill="none" xmlns="http://www.w3.org/2000/svg">
<path d="M39.8889 1.72369C44.0145 1.72369 47.9711 3.2272 50.8883 5.90345C53.8056 8.5797 55.4444 12.2095 55.4444 15.9943V58.806C55.4444 62.5908 53.8056 66.2205 50.8883 68.8968C47.9711 71.573 44.0145 73.0765 39.8889 73.0765C37.8261 73.0765 35.8478 73.8283 34.3892 75.1664C32.9305 76.5046 32.1111 78.3194 32.1111 80.2118V87.3471C32.1111 91.1319 33.75 94.7617 36.6672 97.4379C39.5845 100.114 43.5411 101.618 47.6667 101.618C49.7295 101.618 51.7078 102.369 53.1664 103.708C54.625 105.046 55.4444 106.861 55.4444 108.753V123.024C55.4444 124.916 54.625 126.731 53.1664 128.069C51.7078 129.407 49.7295 130.159 47.6667 130.159C35.2899 130.159 23.42 125.648 14.6683 117.62C5.91665 109.591 1 98.7015 1 87.3471V15.9943C1 12.2095 2.63889 8.5797 5.55612 5.90345C8.47335 3.2272 12.43 1.72369 16.5556 1.72369H39.8889Z" stroke="#38B6FF" stroke-width="2" stroke-linecap="round" stroke-linejoin="round"/>
<path d="M125.444 1.72369C129.57 1.72369 133.527 3.2272 136.444 5.90345C139.361 8.5797 141 12.2095 141 15.9943V58.806C141 62.5908 139.361 66.2205 136.444 68.8968C133.527 71.573 129.57 73.0765 125.444 73.0765C123.382 73.0765 121.403 73.8283 119.945 75.1664C118.486 76.5046 117.667 78.3194 117.667 80.2118V87.3471C117.667 91.1319 119.306 94.7617 122.223 97.4379C125.14 100.114 129.097 101.618 133.222 101.618C135.285 101.618 137.263 102.369 138.722 103.708C140.181 105.046 141 106.861 141 108.753V123.024C141 124.916 140.181 126.731 138.722 128.069C137.263 129.407 135.285 130.159 133.222 130.159C120.845 130.159 108.976 125.648 100.224 117.62C91.4722 109.591 86.5556 98.7015 86.5556 87.3471V15.9943C86.5556 12.2095 88.1944 8.5797 91.1117 5.90345C94.0289 3.2272 97.9855 1.72369 102.111 1.72369H125.444Z" stroke="#38B6FF" stroke-width="2" stroke-linecap="round" stroke-linejoin="round"/>
</svg>
