<svg width="142" height="131" viewBox="0 0 142 131" fill="none" xmlns="http://www.w3.org/2000/svg">
<path d="M102.111 129.435C97.9855 129.435 94.0289 127.932 91.1117 125.255C88.1944 122.579 86.5556 118.949 86.5556 115.165L86.5556 72.3529C86.5556 68.5681 88.1945 64.9383 91.1117 62.2621C94.0289 59.5858 97.9855 58.0823 102.111 58.0823C104.174 58.0823 106.152 57.3306 107.611 55.9925C109.069 54.6543 109.889 52.8395 109.889 50.9471L109.889 43.8118C109.889 40.027 108.25 36.3972 105.333 33.721C102.416 31.0447 98.4589 29.5412 94.3334 29.5412C92.2706 29.5412 90.2922 28.7895 88.8336 27.4513C87.375 26.1132 86.5556 24.2983 86.5556 22.4059L86.5556 8.13534C86.5556 6.24295 87.375 4.42805 88.8336 3.08993C90.2923 1.7518 92.2706 1.00006 94.3334 1.00006C106.71 1.00006 118.58 5.51056 127.332 13.5393C136.083 21.5681 141 32.4574 141 43.8118L141 115.165C141 118.949 139.361 122.579 136.444 125.255C133.527 127.932 129.57 129.435 125.444 129.435L102.111 129.435Z" stroke="#38B6FF" stroke-width="2" stroke-linecap="round" stroke-linejoin="round"/>
<path d="M16.5556 129.435C12.43 129.435 8.47335 127.932 5.55612 125.255C2.63888 122.579 1 118.949 1 115.165L1.00001 72.3529C1.00001 68.5681 2.6389 64.9383 5.55613 62.2621C8.47336 59.5858 12.43 58.0823 16.5556 58.0823C18.6184 58.0823 20.5967 57.3306 22.0553 55.9925C23.5139 54.6543 24.3333 52.8394 24.3333 50.947L24.3333 43.8118C24.3334 40.027 22.6945 36.3972 19.7772 33.7209C16.86 31.0447 12.9034 29.5412 8.7778 29.5412C6.715 29.5412 4.73669 28.7894 3.27808 27.4513C1.81946 26.1132 1.00002 24.2983 1.00002 22.4059L1.00002 8.13533C1.00002 6.24293 1.81947 4.42804 3.27808 3.08992C4.7367 1.75179 6.71501 1.00004 8.7778 1.00005C21.1546 1.00005 33.0244 5.51055 41.7761 13.5393C50.5278 21.5681 55.4445 32.4574 55.4445 43.8118L55.4444 115.165C55.4444 118.949 53.8056 122.579 50.8883 125.255C47.9711 127.932 44.0145 129.435 39.8889 129.435L16.5556 129.435Z" stroke="#38B6FF" stroke-width="2" stroke-linecap="round" stroke-linejoin="round"/>
</svg>
